<?xml version="1.0" standalone="no"?>
<svg xmlns:xlink="http://www.w3.org/1999/xlink" id="wave" style="transform:rotate(180deg); transition: 0.3s" viewBox="0 0 1440 490" version="1.1" xmlns="http://www.w3.org/2000/svg"><defs><linearGradient id="sw-gradient-0" x1="0" x2="0" y1="1" y2="0"><stop stop-color="rgba(255, 249, 234, 1)" offset="0%"/><stop stop-color="rgba(255, 249, 234, 1)" offset="100%"/></linearGradient></defs><path style="transform:translate(0, 0px); opacity:1" fill="url(#sw-gradient-0)" d="M0,196L80,220.5C160,245,320,294,480,277.7C640,261,800,180,960,163.3C1120,147,1280,196,1440,236.8C1600,278,1760,310,1920,294C2080,278,2240,212,2400,196C2560,180,2720,212,2880,204.2C3040,196,3200,147,3360,130.7C3520,114,3680,131,3840,114.3C4000,98,4160,49,4320,98C4480,147,4640,294,4800,294C4960,294,5120,147,5280,81.7C5440,16,5600,33,5760,106.2C5920,180,6080,310,6240,367.5C6400,425,6560,408,6720,359.3C6880,310,7040,229,7200,187.8C7360,147,7520,147,7680,155.2C7840,163,8000,180,8160,196C8320,212,8480,229,8640,228.7C8800,229,8960,212,9120,171.5C9280,131,9440,65,9600,49C9760,33,9920,65,10080,114.3C10240,163,10400,229,10560,261.3C10720,294,10880,294,11040,253.2C11200,212,11360,131,11440,89.8L11520,49L11520,490L11440,490C11360,490,11200,490,11040,490C10880,490,10720,490,10560,490C10400,490,10240,490,10080,490C9920,490,9760,490,9600,490C9440,490,9280,490,9120,490C8960,490,8800,490,8640,490C8480,490,8320,490,8160,490C8000,490,7840,490,7680,490C7520,490,7360,490,7200,490C7040,490,6880,490,6720,490C6560,490,6400,490,6240,490C6080,490,5920,490,5760,490C5600,490,5440,490,5280,490C5120,490,4960,490,4800,490C4640,490,4480,490,4320,490C4160,490,4000,490,3840,490C3680,490,3520,490,3360,490C3200,490,3040,490,2880,490C2720,490,2560,490,2400,490C2240,490,2080,490,1920,490C1760,490,1600,490,1440,490C1280,490,1120,490,960,490C800,490,640,490,480,490C320,490,160,490,80,490L0,490Z"/></svg>